<?xml version="1.0" encoding="utf-8"?>
<!-- Generator: Adobe Illustrator 21.1.0, SVG Export Plug-In . SVG Version: 6.00 Build 0)  -->
<svg version="1.1" id="Layer_1" xmlns="http://www.w3.org/2000/svg" xmlns:xlink="http://www.w3.org/1999/xlink" x="0px" y="0px"
	 viewBox="0 0 32.5 32.5" style="enable-background:new 0 0 32.5 32.5;" xml:space="preserve">
<path d="M16.3,8.1C16.3,8.1,16.3,8.1,16.3,8.1C16.3,8.1,16.3,8.1,16.3,8.1L16.3,8.1z"/>
<path d="M8.1,16.3C8.1,16.3,8.1,16.3,8.1,16.3C8.1,16.3,8.1,16.3,8.1,16.3L8.1,16.3z"/>
<path d="M15.6,15.5V8.2c-3.9,0.3-7,3.4-7.4,7.4H15.6z"/>
<path d="M15.6,17H8.2c0.3,3.9,3.5,7,7.4,7.4V17z"/>
<path d="M17,17v7.4c3.9-0.3,7-3.5,7.4-7.4H17z"/>
<path d="M17,15.5h7.4c-0.4-3.9-3.4-7-7.4-7.4V15.5z"/>
<path d="M32.5,15.5h-2C30.2,8.2,24.3,2.4,17,2V0h-1.4v2C8.3,2.4,2.4,8.2,2,15.5H0V17h2c0.4,7.3,6.2,13.2,13.5,13.5v2H17v-2
	c7.3-0.4,13.2-6.2,13.5-13.5h2V15.5z M24.4,16.3c0,0.2,0,0.5,0,0.7H29c-0.4,6.5-5.6,11.7-12,12v-4.7c-0.2,0-0.5,0-0.7,0
	s-0.5,0-0.7,0V29c-6.5-0.4-11.7-5.6-12-12h4.7c0-0.2,0-0.5,0-0.7s0-0.5,0-0.7H3.5c0.4-6.5,5.6-11.7,12-12v4.7c0.2,0,0.5,0,0.7,0
	s0.5,0,0.7,0V3.5c6.5,0.4,11.7,5.6,12,12h-4.7C24.4,15.8,24.4,16,24.4,16.3z"/>
</svg>
